{
  "accessors": [
    {
      "bufferView": 2,
      "componentType": 5126,
      "count": 23668,
      "max": [
        0.943234384059906,
        0.8613342642784119,
        0.7984585762023926
      ],
      "min": [
        -0.688435971736908,
        -0.7596175670623779,
        -0.7166295051574707
      ],
      "type": "VEC3"
    },
    {
      "bufferView": 2,
      "byteOffset": 284016,
      "componentType": 5126,
      "count": 23668,
      "max": [
        0.9995517134666443,
        0.9999957084655762,
        0.9999905824661255
      ],
      "min": [
        -0.9999361634254456,
        -0.9997749328613281,
        -0.9996448159217834
      ],
      "type": "VEC3"
    },
    {
      "bufferView": 1,
      "componentType": 5126,
      "count": 23668,
      "max": [
        0.6274852752685547,
        0.999923825263977
      ],
      "min": [
        1.069894278771244e-05,
        7.629457832081243e-05
      ],
      "type": "VEC2"
    },
    {
      "bufferView": 0,
      "componentType": 5125,
      "count": 119208,
      "type": "SCALAR"
    },
    {
      "bufferView": 2,
      "byteOffset": 568032,
      "componentType": 5126,
      "count": 31334,
      "max": [
        0.9518401026725769,
        0.8613342642784119,
        0.7388443946838379
      ],
      "min": [
        -0.6752117276191711,
        -0.8977916836738586,
        -0.8110976219177246
      ],
      "type": "VEC3"
    },
    {
      "bufferView": 2,
      "byteOffset": 944040,
      "componentType": 5126,
      "count": 31334,
      "max": [
        0.9999151825904846,
        0.9970335364341736,
        0.999997615814209
      ],
      "min": [
        -0.9999934434890747,
        -0.9999297261238098,
        -0.9999979734420776
      ],
      "type": "VEC3"
    },
    {
      "bufferView": 1,
      "byteOffset": 189344,
      "componentType": 5126,
      "count": 31334,
      "max": [
        0.9999395608901978,
        0.968888521194458
      ],
      "min": [
        3.1799096177564934e-05,
        7.432699203491211e-05
      ],
      "type": "VEC2"
    },
    {
      "bufferView": 0,
      "byteOffset": 476832,
      "componentType": 5125,
      "count": 150792,
      "type": "SCALAR"
    }
  ],
  "asset": {
    "extras": {
      "author": "Peter Caristo (https://sketchfab.com/pcaristo)",
      "license": "CC-BY-4.0 (http://creativecommons.org/licenses/by/4.0/)",
      "source": "https://sketchfab.com/3d-models/grasberg-marcacite-ore-e45372c129ad4fb8add88b2e04ebc541",
      "title": "Grasberg marcacite ore"
    },
    "generator": "Sketchfab-12.63.0",
    "version": "2.0"
  },
  "bufferViews": [
    {
      "buffer": 0,
      "byteLength": 1080000,
      "name": "floatBufferViews",
      "target": 34963
    },
    {
      "buffer": 0,
      "byteLength": 440016,
      "byteOffset": 1080000,
      "byteStride": 8,
      "name": "floatBufferViews",
      "target": 34962
    },
    {
      "buffer": 0,
      "byteLength": 1320048,
      "byteOffset": 1520016,
      "byteStride": 12,
      "name": "floatBufferViews",
      "target": 34962
    }
  ],
  "buffers": [
    {
      "byteLength": 2840064,
      "uri": "scene.bin"
    }
  ],
  "extensionsUsed": [
    "KHR_materials_unlit"
  ],
  "images": [
    {
      "uri": "textures/material0_baseColor.jpeg"
    },
    {
      "uri": "textures/material1_baseColor.jpeg"
    }
  ],
  "materials": [
    {
      "doubleSided": true,
      "extensions": {
        "KHR_materials_unlit": {}
      },
      "name": "material0",
      "pbrMetallicRoughness": {
        "baseColorTexture": {
          "index": 0
        },
        "metallicFactor": 0.0
      }
    },
    {
      "doubleSided": true,
      "extensions": {
        "KHR_materials_unlit": {}
      },
      "name": "material1",
      "pbrMetallicRoughness": {
        "baseColorTexture": {
          "index": 1
        },
        "metallicFactor": 0.0
      }
    }
  ],
  "meshes": [
    {
      "name": "Model_material0_0",
      "primitives": [
        {
          "attributes": {
            "NORMAL": 1,
            "POSITION": 0,
            "TEXCOORD_0": 2
          },
          "indices": 3,
          "material": 0,
          "mode": 4
        }
      ]
    },
    {
      "name": "Model_material1_0",
      "primitives": [
        {
          "attributes": {
            "NORMAL": 5,
            "POSITION": 4,
            "TEXCOORD_0": 6
          },
          "indices": 7,
          "material": 1,
          "mode": 4
        }
      ]
    }
  ],
  "nodes": [
    {
      "children": [
        1
      ],
      "matrix": [
        1.0,
        0.0,
        0.0,
        0.0,
        0.0,
        2.220446049250313e-16,
        -1.0,
        0.0,
        0.0,
        1.0,
        2.220446049250313e-16,
        0.0,
        0.0,
        0.0,
        0.0,
        1.0
      ],
      "name": "Sketchfab_model"
    },
    {
      "children": [
        2
      ],
      "matrix": [
        1.0,
        0.0,
        0.0,
        0.0,
        0.0,
        -1.0,
        0.0,
        0.0,
        0.0,
        0.0,
        -1.0,
        0.0,
        0.0,
        0.0,
        0.0,
        1.0
      ],
      "name": "model.fbx"
    },
    {
      "children": [
        3
      ],
      "name": "RootNode"
    },
    {
      "children": [
        4,
        5
      ],
      "name": "Model"
    },
    {
      "mesh": 0,
      "name": "Model_material0_0"
    },
    {
      "mesh": 1,
      "name": "Model_material1_0"
    }
  ],
  "samplers": [
    {
      "magFilter": 9729,
      "minFilter": 9987,
      "wrapS": 10497,
      "wrapT": 10497
    }
  ],
  "scene": 0,
  "scenes": [
    {
      "name": "Sketchfab_Scene",
      "nodes": [
        0
      ]
    }
  ],
  "textures": [
    {
      "sampler": 0,
      "source": 0
    },
    {
      "sampler": 0,
      "source": 1
    }
  ]
}
